<svg
   xmlns:dc="http://purl.org/dc/elements/1.1/"
   xmlns:cc="http://creativecommons.org/ns#"
   xmlns:rdf="http://www.w3.org/1999/02/22-rdf-syntax-ns#"
   xmlns:svg="http://www.w3.org/2000/svg"
   xmlns="http://www.w3.org/2000/svg"
   xmlns:sodipodi="http://sodipodi.sourceforge.net/DTD/sodipodi-0.dtd"
   xmlns:inkscape="http://www.inkscape.org/namespaces/inkscape"
   version="1.1"
   id="svg4747"
   xml:space="preserve"
   width="800"
   height="800"
   viewBox="0 0 800 800"
   sodipodi:docname="concept-logotype-design-2-publicdomainvectors.org.svg"
   inkscape:version="0.92.4 (5da689c313, 2019-01-14)"><metadata
     id="metadata4753"><rdf:RDF><cc:Work
         rdf:about=""><dc:format>image/svg+xml</dc:format><dc:type
           rdf:resource="http://purl.org/dc/dcmitype/StillImage" /><dc:title></dc:title></cc:Work></rdf:RDF></metadata><defs
     id="defs4751"><clipPath
       clipPathUnits="userSpaceOnUse"
       id="clipPath4763"><path
         d="M 0,600 H 600 V 0 H 0 Z"
         id="path4761"
         inkscape:connector-curvature="0" /></clipPath><linearGradient
       x1="0"
       y1="0"
       x2="1"
       y2="0"
       gradientUnits="userSpaceOnUse"
       gradientTransform="matrix(466.15479,0,0,-466.15479,84.849121,358.27881)"
       spreadMethod="pad"
       id="linearGradient4787"><stop
         style="stop-opacity:1;stop-color:#1aaeec"
         offset="0"
         id="stop4777" /><stop
         style="stop-opacity:1;stop-color:#4253a7"
         offset="0.297753"
         id="stop4779" /><stop
         style="stop-opacity:1;stop-color:#e70c8d"
         offset="0.646067"
         id="stop4781" /><stop
         style="stop-opacity:1;stop-color:#e33c47"
         offset="0.955056"
         id="stop4783" /><stop
         style="stop-opacity:1;stop-color:#e33c47"
         offset="1"
         id="stop4785" /></linearGradient></defs><sodipodi:namedview
     pagecolor="#ffffff"
     bordercolor="#666666"
     borderopacity="1"
     objecttolerance="10"
     gridtolerance="10"
     guidetolerance="10"
     inkscape:pageopacity="0"
     inkscape:pageshadow="2"
     inkscape:window-width="797"
     inkscape:window-height="480"
     id="namedview4749"
     showgrid="false"
     inkscape:zoom="0.31263521"
     inkscape:cx="400"
     inkscape:cy="400"
     inkscape:window-x="-8"
     inkscape:window-y="-8"
     inkscape:window-maximized="1"
     inkscape:current-layer="g4755" /><g
     id="g4755"
     inkscape:groupmode="layer"
     inkscape:label="concept-logotype-design-2-publicdomainvectors.org"
     transform="matrix(1.3333333,0,0,-1.3333333,0,800)"><g
       id="g4757"><g
         id="g4759"
         clip-path="url(#clipPath4763)"><g
           id="g4765"><g
             id="g4767"><g
               id="g4773"><g
                 id="g4775"><path
                   d="m 527.774,355.782 c -1.968,2.276 -4.099,4.744 -6.434,7.379 -7.022,8.038 -15.765,16.547 -26.629,24.847 8.613,-21.45 12.804,-46.858 11.768,-74.431 -0.791,-19.796 -4.324,-40.389 -10.42,-61.2 -9.819,-35.311 -26.938,-70.607 -49.48,-104.086 -4.35,-6.49 -8.925,-12.93 -13.757,-19.312 8.862,15.773 15.768,32.298 20.39,49.091 20.893,40.412 32.573,80.119 35.876,116.147 3.84,42.897 -4.775,81.31 -22.435,108.98 -8.757,13.872 -20.314,25.375 -33.356,34.081 1.861,-0.213 3.726,-0.408 5.56,-0.684 13.174,-3.052 24.846,-7.087 35.112,-11.417 27.552,-11.808 46.119,-26.747 59.353,-39.111 z m -71.26,-96.96 c 0.158,0.987 0.398,1.938 0.558,2.942 7.256,38.222 5.381,74.647 -5.928,104.358 -8.39,24.082 -22.505,43.305 -38.824,56.442 -6.025,4.38 -11.949,8.191 -17.84,11.061 -3.306,1.769 -6.962,2.971 -10.54,4.251 -19.329,-1.494 -38.92,-5.004 -58.413,-10.287 9.133,-0.111 18.473,-1.297 27.616,-3.897 31.355,-8.575 59.61,-34.455 73.099,-70.65 4.498,-13.158 7.698,-27.967 9.047,-44.248 10.182,-14.917 17.395,-32.001 21.225,-49.972 m -91.869,295.023 c -2.776,-1.169 -5.781,-2.433 -9.006,-3.84 -9.817,-4.194 -20.61,-9.879 -31.863,-17.645 23.064,1.561 48.523,-2.305 74.426,-11.811 18.582,-6.87 37.076,-16.592 54.986,-28.821 30.547,-20.251 58.827,-47.436 83.703,-79.223 4.826,-6.143 9.537,-12.483 14.113,-19.05 -12.264,13.299 -25.845,24.974 -40.389,34.56 -31.974,32.36 -66.132,55.739 -99.375,70.012 -39.609,16.909 -78.805,20.586 -110.578,12.34 -15.9,-4.04 -30.409,-11.479 -42.721,-21.193 0.778,1.706 1.539,3.418 2.369,5.077 6.973,11.586 14.418,21.442 21.708,29.867 19.744,22.554 39.689,35.596 55.539,44.361 z m 70.191,-97.736 c -0.888,0.455 -1.718,0.978 -2.625,1.442 -34.108,18.712 -69.33,28.184 -101.082,26.609 -25.494,-0.537 -48.139,-8.022 -65.678,-19.483 -6.025,-4.375 -11.482,-8.831 -16.032,-13.547 -2.705,-2.599 -4.976,-5.705 -7.3,-8.712 -4.551,-18.841 -7.267,-38.561 -8.265,-58.732 2.927,8.651 6.94,17.169 12.239,25.059 17.846,27.172 51.189,46.045 89.78,47.691 13.904,0.211 28.979,-1.321 44.881,-5.072 17.331,5.076 35.809,6.656 54.082,4.745 m -308.972,3.794 c 0.255,-2.999 0.528,-6.248 0.869,-9.752 0.957,-10.629 3.027,-22.652 6.936,-35.755 5.642,22.418 17.186,45.437 34.231,67.135 12.276,15.549 27.238,30.134 44.402,43.387 28.7,22.795 63.295,41.289 101.212,55.125 7.334,2.691 14.818,5.213 22.478,7.536 -16.439,-7.553 -31.738,-16.862 -45.349,-27.732 -40.657,-20.409 -73.447,-45.671 -97.294,-72.876 -28.321,-32.446 -43.929,-68.589 -45.906,-101.353 -1.07,-16.369 1.519,-32.47 6.953,-47.18 -1.381,1.268 -2.774,2.522 -4.096,3.822 -8.864,10.214 -15.937,20.339 -21.696,29.874 -15.349,25.75 -21.59,48.748 -25.028,66.53 z m 114.642,36.556 c -0.705,-0.705 -1.459,-1.333 -2.182,-2.051 -28.335,-26.657 -48.228,-57.229 -56.542,-87.912 -7.367,-24.414 -7.247,-48.262 -1.767,-68.483 2.3,-7.084 4.853,-13.65 7.93,-19.435 1.636,-3.374 3.889,-6.496 6.029,-9.634 16.515,-10.153 34.43,-18.829 53.304,-26.01 -7.323,5.457 -14.183,11.906 -20.05,19.383 -20.326,25.369 -27.973,62.914 -17.613,100.123 4.096,13.29 10.212,27.151 18.692,41.117 0.528,18.05 4.735,36.114 12.199,52.902 M 141.421,203.781 c 2.933,-0.685 6.106,-1.427 9.542,-2.187 10.407,-2.375 22.481,-4.119 36.15,-4.451 -19.577,12.293 -37.901,30.384 -53.271,53.298 -10.995,16.481 -20.241,35.217 -27.543,55.639 -12.811,34.339 -19.709,72.955 -21.151,113.293 -0.293,7.807 -0.379,15.703 -0.221,23.706 2.104,-17.969 6.229,-35.398 12.362,-51.701 6.847,-44.972 20.739,-83.963 39.244,-115.05 22.107,-36.961 51.655,-62.974 82.206,-74.98 15.238,-6.077 31.349,-8.588 47.019,-7.965 -1.631,-0.924 -3.255,-1.862 -4.901,-2.717 -12.452,-5.271 -24.267,-8.871 -35.116,-11.402 -29.231,-6.641 -53.033,-5.469 -71.007,-3.244 z m 0.66,120.328 c 0.451,-0.889 0.816,-1.801 1.277,-2.709 16.595,-35.187 39.524,-63.552 66.137,-80.941 20.942,-14.553 43.659,-21.807 64.585,-22.846 7.447,0 14.483,0.399 20.934,1.539 3.715,0.514 7.379,1.69 11.026,2.754 14.758,12.573 28.546,26.928 41.209,42.66 -7.453,-5.277 -15.706,-9.81 -24.63,-13.078 -30.41,-11.494 -68.478,-7.164 -100.666,14.188 -11.374,8.002 -22.668,18.101 -33.328,30.48 -17.005,6.082 -32.883,15.666 -46.544,27.953 M 389.814,139.432 c 1.559,2.576 3.247,5.363 5.03,8.398 5.476,9.162 10.866,20.108 15.406,33.004 -17.741,-14.82 -40.611,-26.656 -67.154,-34.193 -19.071,-5.364 -39.748,-8.368 -61.426,-9 -36.616,-1.573 -75.475,3.798 -114.283,14.892 -7.515,2.131 -15.052,4.492 -22.615,7.117 17.739,-3.552 35.589,-5.015 52.989,-4.222 44.889,-7.385 86.264,-6.221 121.548,1.771 41.984,9.604 75.854,29.668 96.712,55.012 10.489,12.615 17.856,27.162 22.106,42.258 0.373,-1.838 0.764,-3.67 1.068,-5.5 1.168,-13.473 0.939,-25.821 -0.007,-36.922 -2.716,-29.854 -11.187,-52.127 -18.856,-68.533 z m -114.233,37.81 c 0.985,0.154 1.964,0.219 2.971,0.377 38.593,4.908 72.656,17.951 97.418,37.887 20.309,15.42 34.229,34.785 41.682,54.365 2.302,7.084 4.098,13.897 5.008,20.385 0.66,3.691 0.672,7.539 0.785,11.338 -7.394,17.921 -16.788,35.47 -27.836,52.374 2.717,-8.719 4.477,-17.969 4.829,-27.468 1.533,-32.471 -14.349,-67.338 -44.602,-91.352 -11.125,-8.345 -24.221,-15.966 -39.289,-22.279 -11.039,-14.293 -25.06,-26.433 -40.966,-35.627"
                   style="fill:url(#linearGradient4787);fill-rule:evenodd;stroke:none"
                   id="path4789"
                   inkscape:connector-curvature="0" /></g></g></g></g></g></g></g></svg>
